# xmcd
#
# Track frame offsets: 
#        150
#        14177
#        29675
#        44522
#        53215
#        66250
#        82342
#        96062
#        108190
#        123867
#        144130
#        158805
#
# Disc length: 2342 seconds
#
# Revision: 0
# Processed by: cddbd v1.5.2PL0 Copyright (c) Steve Scherf et al.
# Submitted via: ExactAudioCopy v0.99pb5
#
DISCID=a509240c
DTITLE=David Kitchen - Low Falutin'
DYEAR=1998
DGENRE=Blues
TTITLE0=One Squeeze
TTITLE1=Too Fast, Too Much, Too Soon
TTITLE2=I Was A Fool
TTITLE3=Never Stay At Home
TTITLE4=A Girl I Wish Was You
TTITLE5=Maxine
TTITLE6=Go Back Out
TTITLE7=Mystery To Me
TTITLE8=Hey Where You Been
TTITLE9=Cadillac To Mexico
TTITLE10=Man On Fire
TTITLE11=Trouble
EXTD=
EXTT0=
EXTT1=
EXTT2=
EXTT3=
EXTT4=
EXTT5=
EXTT6=
EXTT7=
EXTT8=
EXTT9=
EXTT10=
EXTT11=
PLAYORDER=
